<svg width="540" height="540" viewBox="0 0 540 540" fill="none" xmlns="http://www.w3.org/2000/svg">
<path d="M540 0H0V539.888H540V0Z" fill="#E6FF01"/>
<path d="M348.092 159.106H191.909C173.812 159.106 159.151 173.767 159.151 191.864V348.024C159.151 366.122 173.812 380.783 191.909 380.783H348.069C366.144 380.783 380.828 366.122 380.828 348.024V191.864C380.828 173.767 366.167 159.106 348.069 159.106H348.092ZM350.144 326.401C350.144 339.478 339.545 350.077 326.468 350.077H213.555C200.478 350.077 189.878 339.478 189.878 326.401V213.487C189.878 200.411 200.478 189.811 213.555 189.811H326.468C339.545 189.811 350.144 200.411 350.144 213.487V326.401V326.401Z" fill="#141517"/>
</svg>
